<?xml version="1.0" encoding="UTF-8"?><svg id="Capa_2" xmlns="http://www.w3.org/2000/svg" viewBox="0 0 53.22 48.3"><defs><style>.cls-1{fill:#fff;}.cls-1,.cls-2{stroke-width:0px;}.cls-2{fill:#ec6067;}</style></defs><g id="Capa_1-2"><path class="cls-1" d="M51.24,17.23c-1.99-4.29-5.65-6.81-10.38-7.48-1.82-.26-3.69-.09-5.54-.14-1.92-.05-3.81.58-5.53,1.48-1.34.7-2.63,1.49-4.04,2.3.04-.43.08-.8.12-1.17.35-3.37.22-6.71-.69-9.98C24.72.61,24.02.02,22.34,0c-.93-.01-1.87.12-2.78.31-1.13.24-1.26.58-.8,1.69.66,1.6,1.35,3.18,2,4.78.88,2.16,1.27,4.43,1.59,6.86-.42-.13-.69-.22-.96-.29-3.75-.98-7.42-.92-10.95.88-.56.29-1.19.44-1.75.73-1.26.66-2.66,1.18-3.72,2.09C1.39,20.11-.17,24.12.01,28.77c.22,5.47,2.4,10.25,5.53,14.61,3.07,4.28,7.33,5.59,12.4,4.61,2.6-.5,5.02-1.51,7.31-2.76,2.66-1.45,5.42-1.92,8.42-1.69,2.05.15,4.13-.02,6.2-.05.29,0,.57.03.86.04.66-.2,1.32-.4,1.99-.6.67-.4,1.32-.85,2.01-1.19,2.31-1.16,4.27-2.77,5.5-5.02,3.47-6.31,4.06-12.9,1.01-19.48Z"/><path class="cls-2" d="M40.73,43.52c-.29-.01-.57-.04-.86-.04-2.07.02-4.15.2-6.2.05-3-.23-5.76.24-8.42,1.69-2.29,1.26-4.72,2.26-7.31,2.76-5.07.98-9.32-.33-12.4-4.61C2.41,39.02.23,34.24.01,28.77c-.18-4.65,1.37-8.66,4.94-11.71,1.06-.91,2.46-1.43,3.72-2.09.56-.29,1.19-.44,1.75-.73,3.53-1.8,7.2-1.86,10.95-.88.28.07.55.16.96.29-.32-2.44-.71-4.7-1.59-6.86-.65-1.6-1.34-3.18-2-4.78-.46-1.11-.34-1.45.8-1.69C20.46.12,21.41-.01,22.34,0c1.68.02,2.38.61,2.84,2.25.92,3.28,1.05,6.61.69,9.98-.04.37-.07.74-.12,1.17,1.41-.81,2.7-1.61,4.04-2.3,1.73-.9,3.61-1.54,5.53-1.48,1.85.05,3.72-.12,5.54.14,4.73.67,8.39,3.19,10.38,7.48,3.05,6.58,2.46,13.17-1.01,19.48-1.24,2.25-3.19,3.86-5.5,5.02-.7.35-1.34.79-2.01,1.19-.66.2-1.32.4-1.99.6ZM26.36,22c-.09.05-.19.09-.28.14.01.24.02.47.04.71.31,2.96-.15,5.81-1.18,8.58-.14.37-.15.92-.97.86-.03-3.8-.25-7.59-1.63-11.34-.3.26-.45.38-.58.52-1.83,2.04-3.26,4.33-4.35,6.85-.22.5-.52.97-.78,1.45l-.39-.1c-.5-1.58-.43-3.21-.2-4.84.24-1.72,1.12-3.19,2.07-4.65-1.25.52-2.39,1.1-3.48,1.76-1.05.64-2.09,1.31-3.07,2.06-.99.75-1.88,1.62-2.83,2.44-.53-.68-.12-1.11.06-1.52,1.6-3.51,4.21-6.04,7.63-7.77.27-.14.55-.28.96-.48-1.73-.97-3.44-1.17-5.15-1.39-2.97-.39-5.37.99-7.3,2.89-2.99,2.95-4.22,6.71-3.93,10.95.33,4.78,2.22,8.97,4.83,12.88,2.77,4.15,6.75,5.48,11.47,4.59,2.06-.39,4.11-1.12,6.02-2.01,3.31-1.56,6.68-2.29,10.34-1.88,1.41.16,2.87.15,4.28-.03,6.19-.78,10.7-3.8,12.83-9.89,1.15-3.28,1.44-6.66.95-10.08-.89-6.26-4.91-10.58-11.08-12.03-1.29-.3-2.55-.18-3.8.21-.57.18-1.14.35-1.68.59-1.87.85-3.77,1.67-5.3,3.32,2.13.58,4,1.44,5.41,3.05,1.37,1.56,2.34,3.3,2.2,5.51-.45-.27-.76-.61-1.02-1-1.68-2.49-4.06-3.83-6.99-4.27-.3-.04-.61.02-.96.03,2.48,5.83,3.37,10.53,2.16,12.25-.92-3.16-2.36-5.91-4.33-8.35ZM35.77,10.41c-.19.03-.38.06-.57.1-3.42.75-6.57,2.1-9.37,4.24-.34.26-.68.77-1.38.39.98-4.42,1.02-8.85-.26-13.2-1.43.01-2.74.02-4.17.03,1.79,4.05,3.08,8.24,3.2,12.98-3.61-1.54-7.15-1.61-10.73-.56.56.2,1.14.22,1.69.38,1.32.38,2.63.81,3.93,1.27.26.09.44.42.82.81-3.57,1.27-6.13,3.49-8.06,6.47,1.52-.82,2.93-1.8,4.4-2.66,1.5-.88,3.02-1.77,4.87-1.76.02.27.07.4.03.46-.22.32-.47.63-.71.93-1.38,1.74-2.34,3.66-2.56,5.89-.03.29.02.59.06,1.25,1.54-3.02,3.02-5.65,5.65-7.64,1.28,3.02,1.72,5.98,2.04,9.29.97-3.24.49-6.21.24-9.39,2.42,1.62,3.53,3.93,4.9,6.08.06-.4.07-.78-.04-1.12-.5-1.5-1.03-2.98-1.56-4.47-.3-.86-.94-1.63-.74-2.76,2.88-.29,5.41.59,7.77,2.2-.04-.22-.11-.39-.22-.53-1.25-1.55-2.86-2.55-4.76-3.11-.58-.17-1.13-.44-1.85-.73,2.06-2.56,4.85-3.49,7.39-4.84ZM23.76,1.21c-1.31-.83-2.49-.47-3.66-.23,1.13.7,2.3.6,3.66.23Z"/><path class="cls-2" d="M4.36,29.81c.16.54.37,1.06.48,1.61.6,2.98,1.54,5.82,3.43,8.26.51.66,1.07,1.29,1.68,1.86.36.34.86.55,1.29.82.08-.09.16-.17.24-.26-.44-.63-.86-1.28-1.31-1.9-1.95-2.65-3.47-5.5-4.08-8.78-.23-1.23-.55-2.45-.84-3.74.15.07.47.13.55.3.25.48.46.99.57,1.51.81,3.77,2.48,7.15,4.61,10.33.44.65.81,1.36,1.1,2.08.12.31.09.86-.11,1.06-.21.2-.78.25-1.07.11-.74-.36-1.51-.77-2.1-1.33-1.77-1.7-3.03-3.78-3.86-6.07-.52-1.42-.81-2.94-1.14-4.42-.1-.44.04-.93.07-1.39.16-.01.33-.03.49-.04Z"/><path class="cls-2" d="M37.21,41.12c5.32-.28,9.31-2.42,11.14-7.71.1,4.55-6.73,9.3-11.14,7.71Z"/><path class="cls-2" d="M45.15,15.01c.44.25.91.45,1.3.76,1.44,1.15,2.29,2.69,2.76,4.45.49,1.84.59,3.72.59,5.61-.12.02-.24.03-.35.05-.07-.63-.13-1.27-.23-1.9-.2-1.26-.37-2.53-.65-3.78-.38-1.65-1.32-2.95-2.67-3.96-.34-.26-.65-.56-.98-.84l.24-.4Z"/><path class="cls-2" d="M21.1,43.57c3.28-1.97,8.22-3.26,11.21-1.81-1.24,0-2.5-.13-3.73,0-1.26.14-2.5.52-3.75.8-1.19.27-2.22,1.16-3.73,1Z"/><path class="cls-2" d="M48.56,27.94c-.24-2.16-.47-4.31-.71-6.47,1.09,2.07,1.14,4.26.71,6.47Z"/><path class="cls-2" d="M3.52,25.28c.68-.45,1.58-.47,1.38-1.57-.35-.06-.73-.12-1.23-.2.47-.68.96-.71,1.51-.27.49.39.54,1.14.18,1.75-.39.64-.79.73-1.84.3Z"/><path class="cls-2" d="M16.32,41.24c.35,1.28-.29,2.38-.55,3.55-.34-1.28.05-2.42.55-3.55Z"/><path class="cls-2" d="M38.87,12.43c-.67.04-1.33.09-2.16.14.93-.86,1.01-.87,2.16-.14Z"/><path class="cls-2" d="M43.64,14.6c-.37-.5-1.08-.76-.33-1.57.35.45.75.82.33,1.57Z"/><path class="cls-2" d="M17.02,44.16c0-.48,0-.97,0-1.64q.52.77,0,1.64Z"/><path class="cls-2" d="M17.97,44.2l.02-1.17c.12,0,.24,0,.36-.01.03.4.06.8.09,1.21-.16,0-.31-.02-.47-.02Z"/><path class="cls-2" d="M42,13.13l.45-.81c.09.05.18.09.27.14-.13.29-.25.58-.38.87-.11-.06-.23-.13-.34-.19Z"/><path class="cls-2" d="M19.31,43.23c.08.27.17.55.25.82-.08.03-.16.06-.24.09l-.34-.76c.11-.05.22-.1.34-.15Z"/><path class="cls-2" d="M23.08,6.51c.86.95,1.13,2.2.67,3.38-.21-1.03-.41-2.06-.67-3.38Z"/><path class="cls-2" d="M20.02,17.27c.08-.32.16-.64.28-1.09.55.55.07.82-.28,1.09Z"/><path class="cls-2" d="M23.12,4.48c-.11.19-.22.37-.34.56-.08-.04-.17-.08-.25-.12.1-.21.19-.42.29-.63.1.06.2.13.29.19Z"/></g></svg>